Coordinates
version=1
nRows=4
nColumns=107
inDegrees=yes

Units are S.I. units (second, meters, Newtons, ...)
If the header above contains a line with 'inDegrees', this indicates whether rotational values are in degrees (yes) or radians (no).

endheader
time	sternoclavicular_r2	sternoclavicular_r3	unrotscap_r3	unrotscap_r2	acromioclavicular_r2	acromioclavicular_r3	acromioclavicular_r1	unrothum_r1	unrothum_r3	unrothum_r2	elv_angle	shoulder_elv	shoulder1_r2	shoulder_rot	elbow_flexion	pro_sup	deviation	flexion	proximal_distal_r1	proximal_distal_r3	cmc_flexion	cmc_abduction	mp_flexion	ip_flexion	mcp2_flexion	mcp2_abduction	pm2_flexion	md2_flexion	mcp3_flexion	mcp3_abduction	pm3_flexion	md3_flexion	mcp4_flexion	mcp4_abduction	pm4_flexion	md4_flexion	mcp5_flexion	mcp5_abduction	pm5_flexion	md5_flexion	bicpt_tx	bicpt_ty	bicpt_tz	bicpt2_tx	bicpt2_ty	bicpt2_tz	ptpt_tx	ptpt_ty	ptpt_tz	FCUpt_tx	FCUpt_ty	FCUpt_tz	EDCpt_tx	EDCpt_ty	EDCpt_tz	APLpt_tx	APLpt_ty	APLpt_tz	FPLpt_tx	FPLpt_ty	FPLpt_tz	FPLpt2_tx	FPLpt2_ty	FPLpt2_tz	PEC1pt2_tx	PEC1pt2_ty	PEC1pt2_tz	PEC1pt3_tx	PEC1pt3_ty	PEC1pt3_tz	PEC2pt2_tx	PEC2pt2_ty	PEC2pt2_tz	PEC2pt3_tx	PEC2pt3_ty	PEC2pt3_tz	PEC3pt2_tx	PEC3pt2_ty	PEC3pt2_tz	PEC3pt3_tx	PEC3pt3_ty	PEC3pt3_tz	DELT2pt2a_tx	DELT2pt2a_ty	DELT2pt2a_tz	DELT2pt2_tx	DELT2pt2_ty	DELT2pt2_tz	LAT1pt2_tx	LAT1pt2_ty	LAT1pt2_tz	LAT1pt3_tx	LAT1pt3_ty	LAT1pt3_tz	LAT2pt2_tx	LAT2pt2_ty	LAT2pt2_tz	LAT2pt3_tx	LAT2pt3_ty	LAT2pt3_tz	LAT3pt2_tx	LAT3pt2_ty	LAT3pt2_tz	LAT3pt3_tx	LAT3pt3_ty	LAT3pt3_tz
      0.50000000	     -0.32320661	      0.13689507	     -0.13689507	      0.32320661	     -0.06544276	      0.52888540	      0.23773035	     -0.23773035	     -0.52888540	      0.06544276	     98.96770617	     76.52203775	     -1.72731233	    -20.11911544	     27.81989620	     13.28876081	     -0.04817920	     -0.87966472	     -0.06728557	     -0.43983236	     -6.70100338	     -9.34195486	    -29.84331335	    -38.93156203	      7.91427881	     11.51040714	     13.61761669	    -20.22069916	     37.87081300	     10.25827570	     85.31516968	     69.27347499	     23.17535362	     -1.65663697	     86.67830890	     46.38842130	     -4.50165588	    -11.46104990	     -3.26564392	      5.05108344	      0.00082020	     -0.03078859	     -0.00481360	      0.01570838	     -0.01775741	     -0.00982132	      0.00656811	     -0.06553491	     -0.00112048	      0.00520109	     -0.18394943	      0.00007185	     -0.00159465	      0.00040376	      0.00014484	      0.00025200	      0.00010080	      0.00050399	      0.00032256	      0.00096767	      0.00054431	     -0.00061281	      0.00019247	      0.00023097	      0.00250822	      0.00880004	      0.00612177	     -0.00820487	      0.01981072	     -0.01879043	      0.00250822	      0.00880004	      0.00612177	      0.00055266	      0.01836530	     -0.00965029	      0.00396136	      0.00489359	      0.01600035	      0.00000000	      0.00783161	      0.00000000	     -0.00718458	     -0.03320209	     -0.00645781	      0.01384490	     -0.00043560	     -0.00333965	     -0.00089276	      0.01496432	     -0.00612177	      0.00246571	      0.02159624	     -0.01785516	     -0.00599423	      0.01296625	     -0.00548408	     -0.01249861	      0.02737791	     -0.03065135	     -0.02346678	      0.01449669	     -0.00735462	     -0.01555949	      0.03162914	     -0.03830356
      0.53333333	     -0.32313323	      0.13686399	     -0.13686399	      0.32313323	     -0.06542791	      0.52876532	      0.23767637	     -0.23767637	     -0.52876532	      0.06542791	     98.97726983	     76.50466466	     -1.72747924	    -20.11102440	     27.82101681	     13.29124336	     -0.04820298	     -0.87963710	     -0.06732004	     -0.43981855	     -6.70105317	     -9.34202147	    -29.84340929	    -38.93163430	      7.91685870	     11.51050096	     13.61788015	    -20.22028098	     37.87152676	     10.25817081	     85.31518643	     69.27349346	     23.17588461	     -1.65659057	     86.67813515	     46.38838406	     -4.50122644	    -11.46084568	     -3.26531300	      5.05106733	      0.00082023	     -0.03078871	     -0.00481362	      0.01570852	     -0.01775772	     -0.00982113	      0.00656793	     -0.06553502	     -0.00112068	      0.00520132	     -0.18394939	      0.00007179	     -0.00159495	      0.00040385	      0.00014485	      0.00025200	      0.00010080	      0.00050401	      0.00032256	      0.00096769	      0.00054433	     -0.00061282	      0.00019247	      0.00023097	      0.00250766	      0.00879804	      0.00612038	     -0.00820301	      0.01980622	     -0.01878616	      0.00250766	      0.00879804	      0.00612038	      0.00055253	      0.01836114	     -0.00964810	      0.00396070	      0.00489248	      0.01599876	      0.00000000	      0.00782803	      0.00000000	     -0.00718294	     -0.03319455	     -0.00645484	      0.01384024	     -0.00043535	     -0.00333682	     -0.00089256	      0.01496092	     -0.00612038	      0.00246515	      0.02159133	     -0.01785110	     -0.00599287	      0.01296330	     -0.00548284	     -0.01249577	      0.02737169	     -0.03064439	     -0.02346145	      0.01449340	     -0.00735295	     -0.01555596	      0.03162195	     -0.03829487
      0.56666667	     -0.32292936	      0.13677763	     -0.13677763	      0.32292936	     -0.06538663	      0.52843171	      0.23752642	     -0.23752642	     -0.52843171	      0.06538663	     98.99874326	     76.45639615	     -1.72785403	    -20.57666586	     27.99693784	     14.68778543	     -0.03579025	     -0.83674269	     -0.04962083	     -0.41837135	     -6.37283945	     -9.80457910	    -29.79891194	    -39.06998486	      7.48819102	     11.60205097	     14.10528284	    -21.14557023	     37.62293847	     10.54159606	     85.63734526	     68.61191913	     23.13702154	     -1.21807786	     86.44873945	     46.34521818	     -4.40969688	    -11.39172046	     -3.28881563	      5.02081280	      0.00082605	     -0.03080888	     -0.00481687	      0.01579423	     -0.01780551	     -0.00972298	      0.00646474	     -0.06560175	     -0.00123318	      0.00533071	     -0.18393065	      0.00003452	     -0.00176253	      0.00044944	      0.00015451	      0.00026978	      0.00010791	      0.00053956	      0.00034532	      0.00103596	      0.00058273	     -0.00055857	      0.00018188	      0.00021825	      0.00250607	      0.00879249	      0.00611652	     -0.00819783	      0.01979373	     -0.01877431	      0.00250607	      0.00879249	      0.00611652	      0.00055219	      0.01834955	     -0.00964201	      0.00395888	      0.00488939	      0.01599433	      0.00000000	      0.00781808	      0.00000000	     -0.00717841	     -0.03317361	     -0.00644658	      0.01410680	     -0.00044971	     -0.00350098	     -0.00089199	      0.01495149	     -0.00611652	      0.00246360	      0.02157771	     -0.01783984	     -0.00598909	      0.01295512	     -0.00547938	     -0.01248789	      0.02735442	     -0.03062506	     -0.02344665	      0.01448425	     -0.00734832	     -0.01554615	      0.03160200	     -0.03827071
      0.60000000	     -0.32235142	      0.13653285	     -0.13653285	      0.32235142	     -0.06526960	      0.52748599	      0.23710132	     -0.23710132	     -0.52748599	      0.06526960	     99.16495715	     76.31956348	     -1.73075500	    -21.22579532	     27.87471400	     14.89047137	     -0.04935970	     -0.85719111	     -0.06898222	     -0.42859556	     -6.52320154	     -9.63131165	    -29.90570211	    -39.12825706	      8.33187297	     11.51337559	     13.44460034	    -20.49146502	     37.84450957	     10.30127712	     85.37910936	     69.48788590	     23.05327205	     -1.55021815	     86.86726095	     46.54688870	     -4.79185668	    -11.42016333	     -3.02256808	      5.03585174	      0.00082201	     -0.03079487	     -0.00481461	      0.01580630	     -0.01777230	     -0.00970851	      0.00644976	     -0.06561143	     -0.00124951	      0.00534954	     -0.18392789	      0.00002923	     -0.00178685	      0.00045611	      0.00015583	      0.00026169	      0.00010467	      0.00052337	      0.00033496	      0.00100488	      0.00056524	     -0.00058310	      0.00018672	      0.00022406	      0.00250159	      0.00877676	      0.00610557	     -0.00818316	      0.01975830	     -0.01874071	      0.00250159	      0.00877676	      0.00610557	      0.00055120	      0.01831671	     -0.00962475	      0.00395371	      0.00488064	      0.01598173	      0.00000000	      0.00778993	      0.00000000	     -0.00716557	     -0.03311424	     -0.00642321	      0.01447357	     -0.00046988	     -0.00373545	     -0.00089040	      0.01492473	     -0.00610557	      0.00245919	      0.02153909	     -0.01780791	     -0.00597837	      0.01293194	     -0.00546957	     -0.01246554	      0.02730547	     -0.03057025	     -0.02340469	      0.01445833	     -0.00733516	     -0.01551832	      0.03154545	     -0.03820221
